<mxfile host="app.diagrams.net" modified="2023-07-22T14:34:39.185Z" agent="Mozilla/5.0 (Windows NT 10.0; Win64; x64) AppleWebKit/537.36 (KHTML, like Gecko) Chrome/115.0.0.0 Safari/537.36 Edg/115.0.1901.183" etag="aPfaIuK8dVqwLKaB0RcQ" version="21.6.5" type="github">
  <diagram name="Halaman-1" id="_YmI9fbawXS85E0Y5c8p">
    <mxGraphModel dx="1674" dy="764" grid="1" gridSize="10" guides="1" tooltips="1" connect="1" arrows="1" fold="1" page="1" pageScale="1" pageWidth="827" pageHeight="1169" math="0" shadow="0">
      <root>
        <mxCell id="0" />
        <mxCell id="1" parent="0" />
        <mxCell id="1Up7t7SWxKcu_IhxTqmg-1" value="Aktor" style="swimlane;whiteSpace=wrap;html=1;" vertex="1" parent="1">
          <mxGeometry x="90" y="70" width="300" height="920" as="geometry" />
        </mxCell>
        <mxCell id="1Up7t7SWxKcu_IhxTqmg-2" style="edgeStyle=orthogonalEdgeStyle;rounded=0;orthogonalLoop=1;jettySize=auto;html=1;entryX=0.5;entryY=0;entryDx=0;entryDy=0;" edge="1" parent="1Up7t7SWxKcu_IhxTqmg-1" source="1Up7t7SWxKcu_IhxTqmg-3" target="1Up7t7SWxKcu_IhxTqmg-4">
          <mxGeometry relative="1" as="geometry" />
        </mxCell>
        <mxCell id="1Up7t7SWxKcu_IhxTqmg-3" value="" style="html=1;shape=mxgraph.sysml.actFinal;strokeWidth=2;verticalLabelPosition=bottom;verticalAlignment=top;" vertex="1" parent="1Up7t7SWxKcu_IhxTqmg-1">
          <mxGeometry x="140" y="60" width="40" height="40" as="geometry" />
        </mxCell>
        <mxCell id="1Up7t7SWxKcu_IhxTqmg-4" value="&lt;font face=&quot;Times New Roman&quot;&gt;Membuka halaman Data Siswa&lt;/font&gt;" style="shape=rect;html=1;rounded=1;whiteSpace=wrap;align=center;" vertex="1" parent="1Up7t7SWxKcu_IhxTqmg-1">
          <mxGeometry x="80" y="180" width="160" height="30" as="geometry" />
        </mxCell>
        <mxCell id="1Up7t7SWxKcu_IhxTqmg-5" value="&lt;font face=&quot;Times New Roman&quot;&gt;Memilih Aksi Edit Data&lt;/font&gt;" style="shape=rect;html=1;rounded=1;whiteSpace=wrap;align=center;" vertex="1" parent="1Up7t7SWxKcu_IhxTqmg-1">
          <mxGeometry x="80" y="355" width="160" height="25" as="geometry" />
        </mxCell>
        <mxCell id="1Up7t7SWxKcu_IhxTqmg-6" style="edgeStyle=orthogonalEdgeStyle;rounded=0;orthogonalLoop=1;jettySize=auto;html=1;" edge="1" parent="1Up7t7SWxKcu_IhxTqmg-1" source="1Up7t7SWxKcu_IhxTqmg-7" target="1Up7t7SWxKcu_IhxTqmg-8">
          <mxGeometry relative="1" as="geometry" />
        </mxCell>
        <mxCell id="1Up7t7SWxKcu_IhxTqmg-7" value="&lt;font face=&quot;Times New Roman&quot;&gt;Melakukan Pengeditan data yang di perlukan&lt;/font&gt;" style="shape=rect;html=1;rounded=1;whiteSpace=wrap;align=center;" vertex="1" parent="1Up7t7SWxKcu_IhxTqmg-1">
          <mxGeometry x="80" y="480" width="160" height="40" as="geometry" />
        </mxCell>
        <mxCell id="1Up7t7SWxKcu_IhxTqmg-8" value="&lt;font face=&quot;Times New Roman&quot;&gt;Menekan Tombol Simpan&lt;/font&gt;" style="shape=rect;html=1;rounded=1;whiteSpace=wrap;align=center;" vertex="1" parent="1Up7t7SWxKcu_IhxTqmg-1">
          <mxGeometry x="80" y="560" width="160" height="25" as="geometry" />
        </mxCell>
        <mxCell id="1Up7t7SWxKcu_IhxTqmg-9" value="Sistem" style="swimlane;whiteSpace=wrap;html=1;" vertex="1" parent="1">
          <mxGeometry x="390" y="70" width="320" height="920" as="geometry" />
        </mxCell>
        <mxCell id="1Up7t7SWxKcu_IhxTqmg-10" value="&lt;font face=&quot;Times New Roman&quot;&gt;Memunculkan halaman data Pendaftar&lt;/font&gt;" style="shape=rect;html=1;rounded=1;whiteSpace=wrap;align=center;" vertex="1" parent="1Up7t7SWxKcu_IhxTqmg-9">
          <mxGeometry x="80" y="270" width="160" height="40" as="geometry" />
        </mxCell>
        <mxCell id="1Up7t7SWxKcu_IhxTqmg-11" value="&lt;font face=&quot;Times New Roman&quot;&gt;Memunculkan halaman form edit data pendaftar beserta data yang sudah ada sebelumnya&lt;/font&gt;" style="shape=rect;html=1;rounded=1;whiteSpace=wrap;align=center;" vertex="1" parent="1Up7t7SWxKcu_IhxTqmg-9">
          <mxGeometry x="80" y="400" width="160" height="60" as="geometry" />
        </mxCell>
        <mxCell id="1Up7t7SWxKcu_IhxTqmg-12" style="edgeStyle=orthogonalEdgeStyle;rounded=0;orthogonalLoop=1;jettySize=auto;html=1;entryX=0.5;entryY=0;entryDx=0;entryDy=0;" edge="1" parent="1Up7t7SWxKcu_IhxTqmg-9" source="1Up7t7SWxKcu_IhxTqmg-13" target="1Up7t7SWxKcu_IhxTqmg-15">
          <mxGeometry relative="1" as="geometry" />
        </mxCell>
        <mxCell id="1Up7t7SWxKcu_IhxTqmg-13" value="&lt;font face=&quot;Times New Roman&quot;&gt;Memeriksa Kesesuaian Data&lt;/font&gt;" style="shape=rect;html=1;rounded=1;whiteSpace=wrap;align=center;" vertex="1" parent="1Up7t7SWxKcu_IhxTqmg-9">
          <mxGeometry x="70" y="557.5" width="160" height="30" as="geometry" />
        </mxCell>
        <mxCell id="1Up7t7SWxKcu_IhxTqmg-14" style="edgeStyle=orthogonalEdgeStyle;rounded=0;orthogonalLoop=1;jettySize=auto;html=1;entryX=0.5;entryY=0;entryDx=0;entryDy=0;" edge="1" parent="1Up7t7SWxKcu_IhxTqmg-9" source="1Up7t7SWxKcu_IhxTqmg-15" target="1Up7t7SWxKcu_IhxTqmg-19">
          <mxGeometry relative="1" as="geometry" />
        </mxCell>
        <mxCell id="1Up7t7SWxKcu_IhxTqmg-15" value="" style="rhombus;whiteSpace=wrap;html=1;" vertex="1" parent="1Up7t7SWxKcu_IhxTqmg-9">
          <mxGeometry x="125" y="620" width="50" height="55" as="geometry" />
        </mxCell>
        <mxCell id="1Up7t7SWxKcu_IhxTqmg-16" value="Sesuai?" style="text;html=1;align=center;verticalAlign=middle;resizable=0;points=[];autosize=1;strokeColor=none;fillColor=none;" vertex="1" parent="1Up7t7SWxKcu_IhxTqmg-9">
          <mxGeometry x="160" y="645" width="70" height="30" as="geometry" />
        </mxCell>
        <mxCell id="1Up7t7SWxKcu_IhxTqmg-17" value="No" style="text;html=1;align=center;verticalAlign=middle;resizable=0;points=[];autosize=1;strokeColor=none;fillColor=none;" vertex="1" parent="1Up7t7SWxKcu_IhxTqmg-9">
          <mxGeometry x="60" y="620" width="40" height="30" as="geometry" />
        </mxCell>
        <mxCell id="1Up7t7SWxKcu_IhxTqmg-18" style="edgeStyle=orthogonalEdgeStyle;rounded=0;orthogonalLoop=1;jettySize=auto;html=1;entryX=0.5;entryY=0;entryDx=0;entryDy=0;entryPerimeter=0;" edge="1" parent="1Up7t7SWxKcu_IhxTqmg-9" source="1Up7t7SWxKcu_IhxTqmg-19" target="1Up7t7SWxKcu_IhxTqmg-21">
          <mxGeometry relative="1" as="geometry" />
        </mxCell>
        <mxCell id="1Up7t7SWxKcu_IhxTqmg-19" value="&lt;font face=&quot;Times New Roman&quot;&gt;Menyimpan Data ke Dalam Database&lt;/font&gt;" style="shape=rect;html=1;rounded=1;whiteSpace=wrap;align=center;" vertex="1" parent="1Up7t7SWxKcu_IhxTqmg-9">
          <mxGeometry x="70" y="740" width="160" height="30" as="geometry" />
        </mxCell>
        <mxCell id="1Up7t7SWxKcu_IhxTqmg-20" value="Yes" style="text;html=1;align=center;verticalAlign=middle;resizable=0;points=[];autosize=1;strokeColor=none;fillColor=none;" vertex="1" parent="1Up7t7SWxKcu_IhxTqmg-9">
          <mxGeometry x="110" y="675" width="40" height="30" as="geometry" />
        </mxCell>
        <mxCell id="1Up7t7SWxKcu_IhxTqmg-21" value="" style="html=1;shape=mxgraph.sysml.actFinal;strokeWidth=2;verticalLabelPosition=bottom;verticalAlignment=top;" vertex="1" parent="1Up7t7SWxKcu_IhxTqmg-9">
          <mxGeometry x="130" y="840" width="40" height="40" as="geometry" />
        </mxCell>
        <mxCell id="1Up7t7SWxKcu_IhxTqmg-22" style="edgeStyle=orthogonalEdgeStyle;rounded=0;orthogonalLoop=1;jettySize=auto;html=1;entryX=0;entryY=0.5;entryDx=0;entryDy=0;" edge="1" parent="1" source="1Up7t7SWxKcu_IhxTqmg-4" target="1Up7t7SWxKcu_IhxTqmg-10">
          <mxGeometry relative="1" as="geometry">
            <Array as="points">
              <mxPoint x="250" y="360" />
            </Array>
          </mxGeometry>
        </mxCell>
        <mxCell id="1Up7t7SWxKcu_IhxTqmg-23" style="edgeStyle=orthogonalEdgeStyle;rounded=0;orthogonalLoop=1;jettySize=auto;html=1;entryX=0;entryY=0.5;entryDx=0;entryDy=0;" edge="1" parent="1" source="1Up7t7SWxKcu_IhxTqmg-5" target="1Up7t7SWxKcu_IhxTqmg-11">
          <mxGeometry relative="1" as="geometry">
            <Array as="points">
              <mxPoint x="240" y="500" />
            </Array>
          </mxGeometry>
        </mxCell>
        <mxCell id="1Up7t7SWxKcu_IhxTqmg-24" style="edgeStyle=orthogonalEdgeStyle;rounded=0;orthogonalLoop=1;jettySize=auto;html=1;entryX=1;entryY=0.75;entryDx=0;entryDy=0;" edge="1" parent="1" source="1Up7t7SWxKcu_IhxTqmg-10" target="1Up7t7SWxKcu_IhxTqmg-5">
          <mxGeometry relative="1" as="geometry">
            <Array as="points">
              <mxPoint x="550" y="444" />
            </Array>
          </mxGeometry>
        </mxCell>
        <mxCell id="1Up7t7SWxKcu_IhxTqmg-25" style="edgeStyle=orthogonalEdgeStyle;rounded=0;orthogonalLoop=1;jettySize=auto;html=1;entryX=1;entryY=0.5;entryDx=0;entryDy=0;" edge="1" parent="1" source="1Up7t7SWxKcu_IhxTqmg-11" target="1Up7t7SWxKcu_IhxTqmg-7">
          <mxGeometry relative="1" as="geometry">
            <Array as="points">
              <mxPoint x="550" y="563" />
            </Array>
          </mxGeometry>
        </mxCell>
        <mxCell id="1Up7t7SWxKcu_IhxTqmg-26" style="edgeStyle=orthogonalEdgeStyle;rounded=0;orthogonalLoop=1;jettySize=auto;html=1;entryX=0;entryY=0.5;entryDx=0;entryDy=0;" edge="1" parent="1" source="1Up7t7SWxKcu_IhxTqmg-8" target="1Up7t7SWxKcu_IhxTqmg-13">
          <mxGeometry relative="1" as="geometry" />
        </mxCell>
        <mxCell id="1Up7t7SWxKcu_IhxTqmg-27" style="edgeStyle=orthogonalEdgeStyle;rounded=0;orthogonalLoop=1;jettySize=auto;html=1;entryX=0;entryY=0.5;entryDx=0;entryDy=0;" edge="1" parent="1" source="1Up7t7SWxKcu_IhxTqmg-15" target="1Up7t7SWxKcu_IhxTqmg-7">
          <mxGeometry relative="1" as="geometry" />
        </mxCell>
      </root>
    </mxGraphModel>
  </diagram>
</mxfile>
